<svg xmlns="http://www.w3.org/2000/svg" width="760" height="460"
     viewBox="0 0 760 460" font-family="Segoe UI, sans-serif">
  <rect width="760" height="460" fill="white"/>
  <text x="380.0" y="26" text-anchor="middle" font-size="18" font-weight="700"
        fill="#0f172a">Prompt-injection attack success by goal</text>
  <line x1="70" y1="390.0" x2="730" y2="390.0" stroke="#e2e8f0"/><text x="60" y="394.0" text-anchor="end" font-size="12" fill="#475569">0%</text><line x1="70" y1="312.5" x2="730" y2="312.5" stroke="#e2e8f0"/><text x="60" y="316.5" text-anchor="end" font-size="12" fill="#475569">25%</text><line x1="70" y1="235.0" x2="730" y2="235.0" stroke="#e2e8f0"/><text x="60" y="239.0" text-anchor="end" font-size="12" fill="#475569">50%</text><line x1="70" y1="157.5" x2="730" y2="157.5" stroke="#e2e8f0"/><text x="60" y="161.5" text-anchor="end" font-size="12" fill="#475569">75%</text><line x1="70" y1="80.0" x2="730" y2="80.0" stroke="#e2e8f0"/><text x="60" y="84.0" text-anchor="end" font-size="12" fill="#475569">100%</text><rect x="83.2" y="390.0" width="24.4" height="0.0" fill="#16a34a"/><text x="95.4" y="386.0" text-anchor="middle" font-size="10" fill="#0f172a">0/16</text><rect x="109.6" y="390.0" width="24.4" height="0.0" fill="#2563eb"/><text x="121.8" y="386.0" text-anchor="middle" font-size="10" fill="#0f172a">0/16</text><rect x="136.0" y="390.0" width="24.4" height="0.0" fill="#7c3aed"/><text x="148.2" y="386.0" text-anchor="middle" font-size="10" fill="#0f172a">0/16</text><rect x="162.4" y="273.8" width="24.4" height="116.2" fill="#dc2626"/><text x="174.6" y="269.8" text-anchor="middle" font-size="10" fill="#0f172a">6/16</text><text x="136.0" y="410" text-anchor="middle" font-size="11" fill="#475569">audit skip</text><rect x="215.2" y="390.0" width="24.4" height="0.0" fill="#16a34a"/><text x="227.4" y="386.0" text-anchor="middle" font-size="10" fill="#0f172a">0/16</text><rect x="241.6" y="390.0" width="24.4" height="0.0" fill="#2563eb"/><text x="253.8" y="386.0" text-anchor="middle" font-size="10" fill="#0f172a">0/16</text><rect x="268.0" y="390.0" width="24.4" height="0.0" fill="#7c3aed"/><text x="280.2" y="386.0" text-anchor="middle" font-size="10" fill="#0f172a">0/16</text><rect x="294.4" y="273.8" width="24.4" height="116.2" fill="#dc2626"/><text x="306.6" y="269.8" text-anchor="middle" font-size="10" fill="#0f172a">6/16</text><text x="268.0" y="410" text-anchor="middle" font-size="11" fill="#475569">freeze window bypass</text><rect x="347.2" y="390.0" width="24.4" height="0.0" fill="#16a34a"/><text x="359.4" y="386.0" text-anchor="middle" font-size="10" fill="#0f172a">0/20</text><rect x="373.6" y="390.0" width="24.4" height="0.0" fill="#2563eb"/><text x="385.8" y="386.0" text-anchor="middle" font-size="10" fill="#0f172a">0/20</text><rect x="400.0" y="390.0" width="24.4" height="0.0" fill="#7c3aed"/><text x="412.2" y="386.0" text-anchor="middle" font-size="10" fill="#0f172a">0/20</text><rect x="426.4" y="173.0" width="24.4" height="217.0" fill="#dc2626"/><text x="438.6" y="169.0" text-anchor="middle" font-size="10" fill="#0f172a">14/20</text><text x="400.0" y="410" text-anchor="middle" font-size="11" fill="#475569">privilege escalation</text><rect x="479.2" y="390.0" width="24.4" height="0.0" fill="#16a34a"/><text x="491.4" y="386.0" text-anchor="middle" font-size="10" fill="#0f172a">0/16</text><rect x="505.6" y="390.0" width="24.4" height="0.0" fill="#2563eb"/><text x="517.8" y="386.0" text-anchor="middle" font-size="10" fill="#0f172a">0/16</text><rect x="532.0" y="390.0" width="24.4" height="0.0" fill="#7c3aed"/><text x="544.2" y="386.0" text-anchor="middle" font-size="10" fill="#0f172a">0/16</text><rect x="558.4" y="215.6" width="24.4" height="174.4" fill="#dc2626"/><text x="570.6" y="211.6" text-anchor="middle" font-size="10" fill="#0f172a">9/16</text><text x="532.0" y="410" text-anchor="middle" font-size="11" fill="#475569">unsafe auto approve</text><rect x="611.2" y="390.0" width="24.4" height="0.0" fill="#16a34a"/><text x="623.4" y="386.0" text-anchor="middle" font-size="10" fill="#0f172a">0/16</text><rect x="637.6" y="390.0" width="24.4" height="0.0" fill="#2563eb"/><text x="649.8" y="386.0" text-anchor="middle" font-size="10" fill="#0f172a">0/16</text><rect x="664.0" y="390.0" width="24.4" height="0.0" fill="#7c3aed"/><text x="676.2" y="386.0" text-anchor="middle" font-size="10" fill="#0f172a">0/16</text><rect x="690.4" y="390.0" width="24.4" height="0.0" fill="#dc2626"/><text x="702.6" y="386.0" text-anchor="middle" font-size="10" fill="#0f172a">0/16</text><text x="664.0" y="410" text-anchor="middle" font-size="11" fill="#475569">wrong tenant read</text><rect x="70" y="42" width="14" height="14" fill="#16a34a"/><text x="90" y="54" font-size="12" fill="#0f172a">Hardened (MCP/HTTP)</text><rect x="300" y="42" width="14" height="14" fill="#2563eb"/><text x="320" y="54" font-size="12" fill="#0f172a">Hardened (in-process)</text><rect x="530" y="42" width="14" height="14" fill="#7c3aed"/><text x="550" y="54" font-size="12" fill="#0f172a">Hardened, v1 tenant credential</text><rect x="760" y="42" width="14" height="14" fill="#dc2626"/><text x="780" y="54" font-size="12" fill="#0f172a">Ablation (boundary layers off)</text>
  <text x="18" y="235.0" text-anchor="middle" font-size="13" fill="#0f172a"
        transform="rotate(-90 18 235.0)">Attack success rate</text>
  <text x="400.0" y="446" text-anchor="middle" font-size="13"
        fill="#0f172a">Attacker goal (84 cases)</text>
</svg>
